<?xml version="1.0" encoding="UTF-8"?>
<svg version="1.1" xmlns="http://www.w3.org/2000/svg" width="44" height="44">
<path d="M0 0 C0.72960937 -0.02835937 1.45921875 -0.05671875 2.2109375 -0.0859375 C8.35421045 1.08704989 12.90104374 6.37796221 17.1171875 10.671875 C17.70799103 11.26550842 18.29879456 11.85914185 18.90750122 12.47076416 C20.77645382 14.35082987 22.63829541 16.2377596 24.5 18.125 C25.77297243 19.40801368 27.04640545 20.69057055 28.3203125 21.97265625 C31.42722667 25.101513 34.52778675 28.23654134 37.625 31.375 C37.63958252 30.7044458 37.65416504 30.0338916 37.66918945 29.34301758 C37.743883 26.29061178 37.84047299 23.23927415 37.9375 20.1875 C37.96005859 19.13240234 37.98261719 18.07730469 38.00585938 16.99023438 C38.04130859 15.96865234 38.07675781 14.94707031 38.11328125 13.89453125 C38.13946533 12.95714111 38.16564941 12.01975098 38.19262695 11.05395508 C38.85808149 6.93084234 40.59753241 4.25136941 43.75 1.5625 C47.81419342 -0.11618858 51.30120852 -0.55468895 55.625 0.375 C59.54786857 2.69372157 62.17411161 5.02233482 63.625 9.375 C63.72812176 11.20410036 63.77350874 13.03669087 63.78613281 14.86865234 C63.79574036 15.99347015 63.8053479 17.11828796 63.81524658 18.27719116 C63.81949646 19.49282745 63.82374634 20.70846375 63.828125 21.9609375 C63.83382507 23.21000885 63.83952515 24.4590802 63.84539795 25.7460022 C63.85485098 28.39060103 63.86174638 31.0350863 63.86523438 33.6796875 C63.870717 37.06135086 63.89474456 40.44261115 63.92320633 43.82414818 C63.94635692 47.05721396 63.94828384 50.29030043 63.953125 53.5234375 C63.9654718 54.73502533 63.9778186 55.94661316 63.99053955 57.19491577 C63.98753845 58.3260379 63.98453735 59.45716003 63.98144531 60.62255859 C63.98691376 62.1112294 63.98691376 62.1112294 63.99249268 63.62997437 C63.56024816 66.85867073 62.45780542 68.71000396 60.625 71.375 C60.13 72.138125 59.635 72.90125 59.125 73.6875 C55.63416249 76.04381532 52.84837346 76.25985516 48.67919922 76.03613281 C45.0514599 75.2508476 43.65072026 74.09486776 40.984375 71.546875 C39.69345947 70.3244812 39.69345947 70.3244812 38.37646484 69.07739258 C37.46848145 68.18560303 36.56049805 67.29381348 35.625 66.375 C35.15588196 65.91652679 34.68676392 65.45805359 34.20343018 64.98568726 C30.77083062 61.62560127 27.38157223 58.2238139 24 54.8125 C22.98591554 53.79338246 21.97159375 52.77450101 20.95703125 51.75585938 C18.51029165 49.29827588 16.06673456 46.83755754 13.625 44.375 C13.6156543 45.04031738 13.60630859 45.70563477 13.59667969 46.39111328 C13.54273981 49.42814019 13.45913938 52.46366579 13.375 55.5 C13.35373047 57.07007812 13.35373047 57.07007812 13.33203125 58.671875 C13.13723743 64.8273596 12.80329902 68.72397372 8.625 73.375 C4.17406717 76.34228856 -0.15687992 76.13136001 -5.375 75.375 C-8.82976651 72.83680419 -10.75771745 70.2990903 -12.375 66.375 C-12.64242554 63.77714539 -12.64242554 63.77714539 -12.66552734 60.79956055 C-12.67828705 59.68127365 -12.69104675 58.56298676 -12.70419312 57.41081238 C-12.70641876 56.20661148 -12.70864441 55.00241058 -12.7109375 53.76171875 C-12.7175943 52.51880569 -12.7242511 51.27589264 -12.73110962 49.99531555 C-12.74123628 47.36513753 -12.74592664 44.73493382 -12.74560547 42.10473633 C-12.74544288 39.41500978 -12.7593314 36.72596391 -12.78662109 34.03637695 C-12.82330892 30.15294623 -12.83308059 26.27030562 -12.8359375 22.38671875 C-12.85030853 21.18859055 -12.86467957 19.99046234 -12.87948608 18.75602722 C-12.84306695 12.08128218 -12.44429169 7.76610007 -8.375 2.375 C-5.65017232 0.42561735 -3.31800961 0.05821069 0 0 Z " fill="#7E8F9C" transform="translate(98.375,69.625)"/>
<path d="M0 0 C3.92286857 2.31872157 6.54911161 4.64733482 8 9 C8.10312176 10.82910036 8.14850874 12.66169087 8.16113281 14.49365234 C8.17074036 15.61847015 8.1803479 16.74328796 8.19024658 17.90219116 C8.19449646 19.11782745 8.19874634 20.33346375 8.203125 21.5859375 C8.20882507 22.83500885 8.21452515 24.0840802 8.22039795 25.3710022 C8.22985098 28.01560103 8.23674638 30.6600863 8.24023438 33.3046875 C8.245717 36.68635086 8.26974456 40.06761115 8.29820633 43.44914818 C8.32135692 46.68221396 8.32328384 49.91530043 8.328125 53.1484375 C8.3404718 54.36002533 8.3528186 55.57161316 8.36553955 56.81991577 C8.36253845 57.9510379 8.35953735 59.08216003 8.35644531 60.24755859 C8.36009094 61.2400058 8.36373657 62.232453 8.36749268 63.25497437 C7.93524816 66.48367073 6.83280542 68.33500396 5 71 C4.2575 72.1446875 4.2575 72.1446875 3.5 73.3125 C-0.71979415 76.16086105 -5.09738145 75.89075746 -10 75 C-13.1636898 73.55948832 -15.1598326 71.96000611 -17 69 C-18.21685791 64.25932437 -17.47987186 60.92546715 -15.25 56.625 C-10.64467077 51.2521159 -7.85299327 50.75604885 -1 50 C-1.45439453 49.5560791 -1.90878906 49.1121582 -2.37695312 48.65478516 C-4.42313518 46.65005141 -6.4616229 44.63766784 -8.5 42.625 C-9.21542969 41.92632812 -9.93085938 41.22765625 -10.66796875 40.5078125 C-11.68310547 39.50234375 -11.68310547 39.50234375 -12.71875 38.4765625 C-13.66137695 37.549646 -13.66137695 37.549646 -14.62304688 36.60400391 C-16 35 -16 35 -16 33 C-16.66 32.67 -17.32 32.34 -18 32 C-17.91892198 28.10332753 -17.80609388 24.20819696 -17.6875 20.3125 C-17.66494141 19.20970703 -17.64238281 18.10691406 -17.61914062 16.97070312 C-17.58369141 15.90400391 -17.54824219 14.83730469 -17.51171875 13.73828125 C-17.48553467 12.75899658 -17.45935059 11.77971191 -17.43237305 10.77075195 C-16.77990646 6.58958693 -15.07077993 3.91331229 -11.875 1.1875 C-7.81080658 -0.49118858 -4.32379148 -0.92968895 0 0 Z " fill="#7E8E9C" transform="translate(154,70)"/>
<path d="M0 0 C3.83605489 1.58363082 6.28445649 4.02614122 9.203125 6.9375 C9.6857782 7.41823975 10.1684314 7.89897949 10.66571045 8.39428711 C11.67999064 9.40721093 12.69176804 10.42264638 13.70117188 11.44042969 C15.25171972 13.00173165 16.81270503 14.55202497 18.375 16.1015625 C19.36001734 17.08790061 20.34441453 18.0748585 21.328125 19.0625 C22.2243457 19.96097656 23.12056641 20.85945313 24.04394531 21.78515625 C26 24 26 24 26 26 C26.66 26 27.32 26 28 26 C29.41015625 27.43359375 29.41015625 27.43359375 31.0625 29.4375 C34.58622672 33.60055267 38.37050797 37.41236419 42.27734375 41.21484375 C44 43 44 43 44 44 C43.40832031 44.02578125 42.81664062 44.0515625 42.20703125 44.078125 C36.9640737 44.45445474 33.76050006 45.01159084 30 49 C27.25194946 52.66406738 27.85354314 56.6062941 28 61 C24.16394511 59.41636918 21.71554351 56.97385878 18.796875 54.0625 C18.3142218 53.58176025 17.8315686 53.10102051 17.33428955 52.60571289 C16.32000936 51.59278907 15.30823196 50.57735362 14.29882812 49.55957031 C12.74828028 47.99826835 11.18729497 46.44797503 9.625 44.8984375 C8.63998266 43.91209939 7.65558547 42.9251415 6.671875 41.9375 C5.32754395 40.58978516 5.32754395 40.58978516 3.95605469 39.21484375 C2 37 2 37 2 35 C1.34 35 0.68 35 0 35 C-1.4453125 33.53125 -1.4453125 33.53125 -3.125 31.5 C-9.26911567 23.80625164 -9.26911567 23.80625164 -17 18 C-16.67 17.34 -16.34 16.68 -16 16 C-15.40832031 16.02320312 -14.81664063 16.04640625 -14.20703125 16.0703125 C-7.77529468 16.37439999 -7.77529468 16.37439999 -2 14 C-0.05839754 9.28467974 0.20650776 5.05944018 0 0 Z " fill="#5B6B7D" transform="translate(110,77)"/>
<path d="M0 0 C8 0 8 0 10.609375 2.23046875 C11.31578125 3.20628906 12.0221875 4.18210938 12.75 5.1875 C13.46671875 6.15042969 14.1834375 7.11335937 14.921875 8.10546875 C15.60765625 9.06066406 16.2934375 10.01585937 17 11 C18.32 12.65 19.64 14.3 21 16 C21.33 10.72 21.66 5.44 22 0 C24.64 0 27.28 0 30 0 C30 10.23 30 20.46 30 31 C22 31 22 31 19.35546875 28.69921875 C18.64003906 27.70535156 17.92460938 26.71148437 17.1875 25.6875 C16.09501953 24.20830078 16.09501953 24.20830078 14.98046875 22.69921875 C14.32691406 21.80847656 13.67335938 20.91773438 13 20 C12.01 19.01 11.02 18.02 10 17 C9.67 21.62 9.34 26.24 9 31 C6.03 31 3.06 31 0 31 C0 20.77 0 10.54 0 0 Z " fill="#354152" transform="translate(82,152)"/>
<path d="M0 0 C3.61821752 1.78998499 5.62974759 4.25949518 7.4375 7.875 C8.2348217 12.30456499 8.27986248 15.77733807 5.9765625 19.77734375 C3.72595278 22.54182101 1.9073255 23.79670451 -1.59765625 24.58203125 C-6.45410589 24.86927655 -10.19045712 24.46279331 -14.1875 21.5625 C-16.70847992 18.99909975 -17.49352646 17.08244884 -17.6875 13.5 C-17.24738492 8.16472738 -14.8228784 5.02542045 -11.3125 1.125 C-7.57889583 -0.69134797 -4.05698544 -0.74530408 0 0 Z " fill="#8EBC3F" transform="translate(154,121)"/>
<path d="M0 0 C4.97517828 3.73138371 4.97517828 3.73138371 5.90234375 6.95703125 C6.41389844 11.51897786 6.60216717 13.98316566 4.5 18.1875 C2.05433292 20.90490787 0.40182767 22.51811358 -3.2734375 23.05859375 C-11.04229195 23.23951228 -11.04229195 23.23951228 -14.875 20.25 C-15.49375 19.404375 -16.1125 18.55875 -16.75 17.6875 C-17.08 17.3575 -17.41 17.0275 -17.75 16.6875 C-18.27221135 12.30838484 -18.74932599 7.69001038 -16.73828125 3.66015625 C-12.34253495 -1.73882344 -6.3233495 -3.01796226 0 0 Z " fill="#8EBD3D" transform="translate(104.75,122.3125)"/>
<path d="M0 0 C4.36157659 2.28617955 6.59412206 4.7598174 8.125 9.4375 C7.97397968 13.74157903 7.17626205 16.27929391 5 20 C1.30763053 23.34889324 -1.89703787 24.76532902 -6.96875 24.53125 C-10.78315907 23.53363532 -13.42250467 20.88380637 -16 18 C-17.59799033 14.80401935 -17.36773555 11.47677244 -17 8 C-13.88164424 0.61442058 -7.54928974 -1.57169513 0 0 Z " fill="#8EBD3E" transform="translate(154,70)"/>
<path d="M0 0 C3.8026029 2.0050088 5.61790841 3.42686262 8 7 C8.52232715 12.43220237 7.65767424 16.23451515 5 21 C1.45726191 24.23014356 -2.14211538 24.5689765 -6.77734375 24.4296875 C-10.58350909 23.69387346 -12.35670706 21.77545759 -15 19 C-16.97698481 15.04603037 -16.57069292 10.29880647 -16 6 C-11.47086308 0.04060932 -7.16210871 -0.89074965 0 0 Z " fill="#8EBC3E" transform="translate(103,70)"/>
<path d="M0 0 C2.99367869 1.52562472 5.07901397 3.23579045 7 6 C7.85757362 9.13933202 7.95006144 11.70405474 8 15 C2.72 15 -2.56 15 -8 15 C-7.01 15.99 -6.02 16.98 -5 18 C-3.4221875 17.443125 -3.4221875 17.443125 -1.8125 16.875 C2.18632214 15.95723754 3.49128216 16.08615391 7 18 C6.00449135 20.6245228 5.06036546 21.95028727 2.875 23.75 C-0.88178137 25.38338321 -3.96239859 25.6060497 -8 25 C-11.67248378 23.36778499 -14.04226138 21.52392951 -16 18 C-17.09527046 13.85361897 -17.1302189 11.45193619 -15.9375 7.3125 C-12.35394573 1.18577818 -7.11878121 -1.76600534 0 0 Z M-7 7 C-7.33 7.99 -7.66 8.98 -8 10 C-5.36 10 -2.72 10 0 10 C-0.66 9.01 -1.32 8.02 -2 7 C-4.58380177 6.74969023 -4.58380177 6.74969023 -7 7 Z " fill="#384455" transform="translate(132,159)"/>
<path d="M0 0 C2.97 0 5.94 0 9 0 C9 2.64 9 5.28 9 8 C10.98 8 12.96 8 15 8 C15 9.98 15 11.96 15 14 C13.02 14 11.04 14 9 14 C9.33 17.3 9.66 20.6 10 24 C11.65 24 13.3 24 15 24 C15.04241723 26.33294775 15.04092937 28.66702567 15 31 C14 32 14 32 10.25 32.3125 C7.03487479 32.26632226 5.97070848 31.98317296 3.0625 30.3125 C-0.32450401 26.51495005 -0.12516909 22.4052665 -0.09765625 17.48046875 C-0.09443359 16.45888672 -0.09121094 15.43730469 -0.08789062 14.38476562 C-0.07951172 13.32966797 -0.07113281 12.27457031 -0.0625 11.1875 C-0.05798828 10.11306641 -0.05347656 9.03863281 -0.04882812 7.93164062 C-0.03707729 5.28770317 -0.02064787 2.64388048 0 0 Z " fill="#414C5C" transform="translate(155,152)"/>
<path d="M0 0 C2.64 0 5.28 0 8 0 C8 10.23 8 20.46 8 31 C5.36 31 2.72 31 0 31 C0 20.77 0 10.54 0 0 Z " fill="#384456" transform="translate(143,152)"/>
<path d="M0 0 C0.33 0 0.66 0 1 0 C1 8.25 1 16.5 1 25 C-3.17868174 21.41827279 -7.02163626 18.08458759 -10.8125 14.1875 C-13.62013175 11.20081215 -13.62013175 11.20081215 -17 9 C-16.67 8.34 -16.34 7.68 -16 7 C-15.11248047 7.03480469 -15.11248047 7.03480469 -14.20703125 7.0703125 C-7.82094822 7.30903956 -7.82094822 7.30903956 -2 5 C-0.63921965 2.47627099 -0.63921965 2.47627099 0 0 Z " fill="#37435B" transform="translate(110,86)"/>
<path d="M0 0 C4.34058114 3.72049812 8.42926021 7.29205856 12.4375 11.3125 C13.30246094 12.17488281 14.16742188 13.03726563 15.05859375 13.92578125 C17 16 17 16 17 17 C16.40832031 17.02578125 15.81664062 17.0515625 15.20703125 17.078125 C9.95018101 17.45545193 6.82251643 18.05802993 3 22 C2.67 22.66 2.34 23.32 2 24 C1.34 24 0.68 24 0 24 C0 16.08 0 8.16 0 0 Z " fill="#37435B" transform="translate(137,104)"/>
</svg>
